<svg width="95.35022500000001" height="139.873815" viewBox="0 0 95.35022500000001 139.873815" fill="none" xmlns="http://www.w3.org/2000/svg">
  <path d="M95.350225 138.745696 L95.350225 139.873815" fill="none" stroke="black" stroke-width="0.5" />
  <path d="M95.350225 139.873815 L0 139.873815" fill="none" stroke="black" stroke-width="0.5" />
  <path d="M0 138.745696 L0 139.873815" fill="none" stroke="black" stroke-width="0.5" />
  <path d="M93.658048 0 L93.658048 139.873815" fill="none" stroke="black" stroke-width="0.5" />
  <path d="M1.692178 0 L1.692178 139.873815" fill="none" stroke="black" stroke-width="0.5" />
  <path d="M93.658048 74.323925 L51.145909 74.323925" fill="none" stroke="black" stroke-width="0.5" />
  <path d="M93.658048 0 L76.760121 0" fill="none" stroke="black" stroke-width="0.5" />
  <path d="M76.760121 0 L30.139975 0" fill="none" stroke="black" stroke-width="0.5" />
  <path d="M30.139975 0 L1.692178 0" fill="none" stroke="black" stroke-width="0.5" />
  <path d="M69.756036 68.542318 C69.756036 69.788403 68.745885 70.798555 67.499799 70.798555 C66.253714 70.798555 65.243562 69.788403 65.243562 68.542318 C65.243562 67.296232 66.253714 66.286081 67.499799 66.286081 C68.745885 66.286081 69.756036 67.296232 69.756036 68.542318" fill="none" stroke="black" stroke-width="0.5" />
  <path d="M70.038066 68.542318 C70.038066 69.944164 68.901645 71.080584 67.499799 71.080584 C66.097953 71.080584 64.961533 69.944164 64.961533 68.542318 C64.961533 67.140472 66.097953 66.004051 67.499799 66.004051 C68.901645 66.004051 70.038066 67.140472 70.038066 68.542318" fill="none" stroke="black" stroke-width="0.5" />
  <path d="M70.037808 29.780879 C70.037808 31.182725 68.901387 32.319146 67.499541 32.319146 C66.097695 32.319146 64.961275 31.182725 64.961275 29.780879 C64.961275 28.379033 66.097695 27.242613 67.499541 27.242613 C68.901387 27.242613 70.037808 28.379033 70.037808 29.780879" fill="none" stroke="black" stroke-width="0.5" />
  <path d="M69.755778 29.780879 C69.755778 31.026965 68.745627 32.037116 67.499541 32.037116 C66.253456 32.037116 65.243304 31.026965 65.243304 29.780879 C65.243304 28.534794 66.253456 27.524642 67.499541 27.524642 C68.745627 27.524642 69.755778 28.534794 69.755778 29.780879" fill="none" stroke="black" stroke-width="0.5" />
  <path d="M93.658048 23.840621 L51.145909 23.840621" fill="none" stroke="black" stroke-width="0.5" />
  <path d="M30.106405 29.780879 C30.106405 31.026965 29.096254 32.037116 27.850168 32.037116 C26.604083 32.037116 25.593931 31.026965 25.593931 29.780879 C25.593931 28.534794 26.604083 27.524642 27.850168 27.524642 C29.096254 27.524642 30.106405 28.534794 30.106405 29.780879" fill="none" stroke="black" stroke-width="0.5" />
  <path d="M30.388435 29.780879 C30.388435 31.182725 29.252014 32.319146 27.850168 32.319146 C26.448322 32.319146 25.311902 31.182725 25.311902 29.780879 C25.311902 28.379033 26.448322 27.242613 27.850168 27.242613 C29.252014 27.242613 30.388435 28.379033 30.388435 29.780879" fill="none" stroke="black" stroke-width="0.5" />
  <path d="M30.388693 68.542318 C30.388693 69.944164 29.252272 71.080584 27.850426 71.080584 C26.44858 71.080584 25.31216 69.944164 25.31216 68.542318 C25.31216 67.140472 26.44858 66.004051 27.850426 66.004051 C29.252272 66.004051 30.388693 67.140472 30.388693 68.542318" fill="none" stroke="black" stroke-width="0.5" />
  <path d="M30.106663 68.542318 C30.106663 69.788403 29.096512 70.798555 27.850426 70.798555 C26.604341 70.798555 25.594189 69.788403 25.594189 68.542318 C25.594189 67.296232 26.604341 66.286081 27.850426 66.286081 C29.096512 66.286081 30.106663 67.296232 30.106663 68.542318" fill="none" stroke="black" stroke-width="0.5" />
  <path d="M51.145909 105.619889 L89.187214 105.619889" fill="none" stroke="black" stroke-width="0.5" />
  <path d="M88.162149 111.363907 L88.162149 105.619889" fill="none" stroke="black" stroke-width="0.5" />
  <path d="M89.187214 117.681643 L89.187214 111.363907" fill="none" stroke="black" stroke-width="0.5" />
  <path d="M89.187214 111.363907 L75.8015 111.363907" fill="none" stroke="black" stroke-width="0.5" />
  <path d="M75.8015 117.681643 L89.187214 117.681643" fill="none" stroke="black" stroke-width="0.5" />
  <path d="M51.145909 107.768173 L51.145909 14.680045" fill="none" stroke="black" stroke-width="0.5" />
  <path d="M46.069376 107.768173 L46.069376 14.680045" fill="none" stroke="black" stroke-width="0.5" />
  <path d="M75.8015 111.984508 L55.376354 111.984508" fill="none" stroke="black" stroke-width="0.5" />
  <path d="M75.8015 117.061041 L55.376354 117.061041" fill="none" stroke="black" stroke-width="0.5" />
  <path d="M51.145909 107.768173 C51.145909 110.104583 53.039944 111.998618 55.376354 111.998618" fill="none" stroke="black" stroke-width="0.5" />
  <path d="M46.069376 107.768173 C46.069376 112.908275 50.236252 117.075151 55.376354 117.075151" fill="none" stroke="black" stroke-width="0.5" />
  <path d="M46.069376 77.290004 L1.692178 77.290004 L1.692178 105.619889 L46.069376 105.619889" fill="none" stroke="black" stroke-width="0.5" />
  <path d="M46.069376 23.840621 L1.692178 23.840621" fill="none" stroke="black" stroke-width="0.5" />
  <path d="M89.187214 105.619889 L93.658048 105.619889 L93.658048 77.290004 L51.145909 77.290004" fill="none" stroke="black" stroke-width="0.5" />
  <path d="M1.692178 74.323925 L46.069376 74.323925" fill="none" stroke="black" stroke-width="0.5" />
  <path d="M75.8015 111.363907 L75.8015 117.681643" fill="none" stroke="black" stroke-width="0.5" />
</svg>