<svg width="93.04981999999998" height="42.79217699999998" viewBox="0 0 93.04981999999998 42.79217699999998" fill="none" xmlns="http://www.w3.org/2000/svg">
  <path d="M6.46303 0 L6.46303 0.57212" fill="none" stroke="black" stroke-width="0.5" />
  <path d="M5.31879 0 L5.31879 0.57212" fill="none" stroke="black" stroke-width="0.5" />
  <path d="M4.996972 0 L4.996972 0.893938" fill="none" stroke="black" stroke-width="0.5" />
  <path d="M6.784847 0 L6.784847 0.893938" fill="none" stroke="black" stroke-width="0.5" />
  <path d="M5.31879 0.57212 L6.46303 0.57212" fill="none" stroke="black" stroke-width="0.5" />
  <path d="M6.46303 0 L6.784847 0" fill="none" stroke="black" stroke-width="0.5" />
  <path d="M4.996972 0 L5.31879 0" fill="none" stroke="black" stroke-width="0.5" />
  <path d="M40.182354 0 L40.182354 0.57212" fill="none" stroke="black" stroke-width="0.5" />
  <path d="M39.860536 0 L39.860536 0.893938" fill="none" stroke="black" stroke-width="0.5" />
  <path d="M41.326594 0 L41.326594 0.57212" fill="none" stroke="black" stroke-width="0.5" />
  <path d="M41.648411 0 L41.648411 0.893938" fill="none" stroke="black" stroke-width="0.5" />
  <path d="M40.182354 0.57212 L41.326594 0.57212" fill="none" stroke="black" stroke-width="0.5" />
  <path d="M39.860536 0 L40.182354 0" fill="none" stroke="black" stroke-width="0.5" />
  <path d="M41.326594 0 L41.648411 0" fill="none" stroke="black" stroke-width="0.5" />
  <path d="M25.390836 9.064713 C24.100951 8.70567 22.722105 8.860631 21.544093 9.497028" fill="none" stroke="black" stroke-width="0.5" />
  <path d="M26.058141 9.943134 C26.058141 9.53372 25.785255 9.174501 25.390836 9.064713" fill="none" stroke="black" stroke-width="0.5" />
  <path d="M21.544093 9.497028 C20.954625 9.815476 20.587243 10.431512 20.587243 11.101498" fill="none" stroke="black" stroke-width="0.5" />
  <path d="M0.45176 39.075585 C0.479171 40.448761 0.996503 41.766917 1.910398 42.792177" fill="none" stroke="black" stroke-width="0.5" />
  <path d="M13.350749 16.281206 C13.331799 16.950925 13.68161 17.577105 14.261836 17.912098" fill="none" stroke="black" stroke-width="0.5" />
  <path d="M14.899725 12.733672 C13.943842 13.671223 13.388619 14.942819 13.350749 16.281206" fill="none" stroke="black" stroke-width="0.5" />
  <path d="M12.831581 23.65372 C13.165582 24.950314 13.989205 26.066949 15.129348 26.768939" fill="none" stroke="black" stroke-width="0.5" />
  <path d="M15.994112 12.59498 C15.639549 12.390272 15.192014 12.446989 14.899725 12.733672" fill="none" stroke="black" stroke-width="0.5" />
  <path d="M13.258663 22.636606 C12.9041 22.841314 12.72945 23.257249 12.831581 23.65372" fill="none" stroke="black" stroke-width="0.5" />
  <path d="M21.254548 30.904809 C22.544432 31.263852 23.923278 31.108891 25.10129 30.472494" fill="none" stroke="black" stroke-width="0.5" />
  <path d="M20.587243 30.026388 C20.587243 30.435802 20.860128 30.795021 21.254548 30.904809" fill="none" stroke="black" stroke-width="0.5" />
  <path d="M22.593239 18.583601 L22.593239 17.882907" fill="none" stroke="black" stroke-width="0.5" />
  <path d="M24.052145 18.583601 L24.052145 17.691386" fill="none" stroke="black" stroke-width="0.5" />
  <path d="M24.439686 18.867767 L31.382085 11.925368" fill="none" stroke="black" stroke-width="0.5" />
  <path d="M21.784018 17.799711 C22.936777 18.015746 24.128792 17.812665 25.144986 17.227112" fill="none" stroke="black" stroke-width="0.5" />
  <path d="M26.264466 19.984761 C26.264466 21.609458 24.947389 22.926536 23.322692 22.926536 C21.697995 22.926536 20.380917 21.609458 20.380917 19.984761 C20.380917 18.360064 21.697995 17.042987 23.322692 17.042987 C24.947389 17.042987 26.264466 18.360064 26.264466 19.984761" fill="none" stroke="black" stroke-width="0.5" />
  <path d="M27.988796 19.984761 C27.988796 22.56178 25.89971 24.650866 23.322692 24.650866 C20.745673 24.650866 18.656587 22.56178 18.656587 19.984761 C18.656587 17.407743 20.745673 15.318656 23.322692 15.318656 C25.89971 15.318656 27.988796 17.407743 27.988796 19.984761" fill="none" stroke="black" stroke-width="0.5" />
  <path d="M20.661046 20.224767 C21.424517 19.334465 21.844651 18.20061 21.845645 17.027783" fill="none" stroke="black" stroke-width="0.5" />
  <path d="M24.445664 17.559706 C24.834952 18.666042 25.606832 19.596816 26.622033 20.18409" fill="none" stroke="black" stroke-width="0.5" />
  <path d="M28.447003 20.184863 L33.38672 17.332916" fill="none" stroke="black" stroke-width="0.5" />
  <path d="M24.171406 18.652456 L24.778224 18.302109" fill="none" stroke="black" stroke-width="0.5" />
  <path d="M24.861365 22.169811 C23.708606 21.953777 22.516592 22.156857 21.500397 22.74241" fill="none" stroke="black" stroke-width="0.5" />
  <path d="M24.439686 21.101755 L31.382085 28.044155" fill="none" stroke="black" stroke-width="0.5" />
  <path d="M24.171406 21.317066 L24.944086 21.763174" fill="none" stroke="black" stroke-width="0.5" />
  <path d="M24.90236 19.984761 C24.90236 20.857188 24.195118 21.56443 23.322692 21.56443 C22.450265 21.56443 21.743023 20.857188 21.743023 19.984761 C21.743023 19.112334 22.450265 18.405093 23.322692 18.405093 C24.195118 18.405093 24.90236 19.112334 24.90236 19.984761" fill="none" stroke="black" stroke-width="0.5" />
  <path d="M33.294634 23.688316 C33.313584 23.018598 32.963773 22.392418 32.383548 22.057425" fill="none" stroke="black" stroke-width="0.5" />
  <path d="M30.651271 27.374543 C31.005834 27.57925 31.45337 27.522533 31.745659 27.23585" fill="none" stroke="black" stroke-width="0.5" />
  <path d="M31.745659 27.23585 C32.701542 26.298299 33.256764 25.026703 33.294634 23.688316" fill="none" stroke="black" stroke-width="0.5" />
  <path d="M24.900859 20.053617 L25.507677 20.403963" fill="none" stroke="black" stroke-width="0.5" />
  <path d="M26.622033 20.18409 C27.186469 20.510605 27.882291 20.510899 28.447003 20.184863" fill="none" stroke="black" stroke-width="0.5" />
  <path d="M25.711554 24.522596 L30.651271 27.374543" fill="none" stroke="black" stroke-width="0.5" />
  <path d="M28.793589 19.984761 L32.383548 22.057425" fill="none" stroke="black" stroke-width="0.5" />
  <path d="M25.10129 30.472494 C25.690758 30.154046 26.058141 29.538011 26.058141 28.868024" fill="none" stroke="black" stroke-width="0.5" />
  <path d="M26.058141 24.722698 L26.058141 28.868024" fill="none" stroke="black" stroke-width="0.5" />
  <path d="M24.900859 19.915906 L25.673539 19.469798" fill="none" stroke="black" stroke-width="0.5" />
  <path d="M24.799739 22.941739 C24.799186 23.593812 25.146842 24.196559 25.711554 24.522596" fill="none" stroke="black" stroke-width="0.5" />
  <path d="M25.984337 19.744756 C25.220866 20.635057 24.800732 21.768912 24.799739 22.941739" fill="none" stroke="black" stroke-width="0.5" />
  <path d="M22.473978 18.652456 L21.701297 18.206349" fill="none" stroke="black" stroke-width="0.5" />
  <path d="M20.02335 19.785432 C19.458915 19.458918 18.763092 19.458623 18.19838 19.78466" fill="none" stroke="black" stroke-width="0.5" />
  <path d="M22.473978 21.317066 L21.867159 21.667413" fill="none" stroke="black" stroke-width="0.5" />
  <path d="M22.593239 21.385922 L22.593239 22.278136" fill="none" stroke="black" stroke-width="0.5" />
  <path d="M24.052145 21.385922 L24.052145 22.086615" fill="none" stroke="black" stroke-width="0.5" />
  <path d="M21.744525 20.053617 L20.971844 20.499724" fill="none" stroke="black" stroke-width="0.5" />
  <path d="M21.500397 22.74241 C20.935409 23.067969 20.587243 23.670421 20.587243 24.322494" fill="none" stroke="black" stroke-width="0.5" />
  <path d="M20.587243 24.322494 L20.587243 30.026388" fill="none" stroke="black" stroke-width="0.5" />
  <path d="M22.19972 22.409816 C21.810431 21.303481 21.038551 20.372706 20.02335 19.785432" fill="none" stroke="black" stroke-width="0.5" />
  <path d="M21.744525 19.915906 L21.137706 19.565559" fill="none" stroke="black" stroke-width="0.5" />
  <path d="M33.38672 17.332916 C33.741283 17.128209 33.915933 16.712274 33.813802 16.315802" fill="none" stroke="black" stroke-width="0.5" />
  <path d="M33.813802 16.315802 C33.479801 15.019208 32.656178 13.902573 31.516036 13.200583" fill="none" stroke="black" stroke-width="0.5" />
  <path d="M26.058141 15.246825 L29.648099 13.174161" fill="none" stroke="black" stroke-width="0.5" />
  <path d="M25.144986 17.227112 C25.709974 16.901554 26.058141 16.299101 26.058141 15.647028" fill="none" stroke="black" stroke-width="0.5" />
  <path d="M31.516036 13.200583 C30.945517 12.849313 30.228324 12.839168 29.648099 13.174161" fill="none" stroke="black" stroke-width="0.5" />
  <path d="M21.845645 17.027783 C21.846197 16.37571 21.498541 15.772963 20.933829 15.446926" fill="none" stroke="black" stroke-width="0.5" />
  <path d="M20.587243 24.722698 L16.997285 26.795361" fill="none" stroke="black" stroke-width="0.5" />
  <path d="M15.129348 26.768939 C15.699866 27.12021 16.417059 27.130354 16.997285 26.795361" fill="none" stroke="black" stroke-width="0.5" />
  <path d="M18.19838 19.78466 L13.258663 22.636606" fill="none" stroke="black" stroke-width="0.5" />
  <path d="M17.851794 19.984761 L14.261836 17.912098" fill="none" stroke="black" stroke-width="0.5" />
  <path d="M22.205697 18.867767 L15.263298 11.925368" fill="none" stroke="black" stroke-width="0.5" />
  <path d="M30.333885 19.984761 C30.333885 23.856936 27.194867 26.995955 23.322692 26.995955 C19.450516 26.995955 16.311498 23.856936 16.311498 19.984761 C16.311498 16.112586 19.450516 12.973568 23.322692 12.973568 C27.194867 12.973568 30.333885 16.112586 30.333885 19.984761" fill="none" stroke="black" stroke-width="0.5" />
  <path d="M22.205697 21.101755 L15.263298 28.044155" fill="none" stroke="black" stroke-width="0.5" />
  <path d="M20.933829 15.446926 L15.994112 12.59498" fill="none" stroke="black" stroke-width="0.5" />
  <path d="M5.89091 0.893938 L5.89091 39.075585" fill="none" stroke="black" stroke-width="0.5" />
  <path d="M40.754474 0.893938 L40.754474 39.075585" fill="none" stroke="black" stroke-width="0.5" />
  <path d="M34.720395 19.984761 C34.720395 26.279539 29.61747 31.382465 23.322692 31.382465 C17.027914 31.382465 11.924988 26.279539 11.924988 19.984761 C11.924988 13.689983 17.027914 8.587058 23.322692 8.587058 C29.61747 8.587058 34.720395 13.689983 34.720395 19.984761" fill="none" stroke="black" stroke-width="0.5" />
  <path d="M32.553064 19.984761 C32.553064 25.082555 28.420486 29.215134 23.322692 29.215134 C18.224898 29.215134 14.092319 25.082555 14.092319 19.984761 C14.092319 14.886967 18.224898 10.754389 23.322692 10.754389 C28.420486 10.754389 32.553064 14.886967 32.553064 19.984761" fill="none" stroke="black" stroke-width="0.5" />
  <path d="M26.058141 15.647028 L26.058141 9.943134" fill="none" stroke="black" stroke-width="0.5" />
  <path d="M20.587243 15.246825 L20.587243 11.101498" fill="none" stroke="black" stroke-width="0.5" />
  <path d="M1.910398 42.792177 L93.04982 42.56932" fill="none" stroke="black" stroke-width="0.5" />
  <path d="M0.45176 39.075585 L93.04982 39.075585" fill="none" stroke="black" stroke-width="0.5" />
  <path d="M4.996972 0.893938 L41.648411 0.893938" fill="none" stroke="black" stroke-width="0.5" />
  <path d="M5.89091 0.893938 L5.89091 2.939392" fill="none" stroke="black" stroke-width="0.5" />
  <path d="M5.89091 3.090218 L0 3.090218" fill="none" stroke="black" stroke-width="0.5" />
  <path d="M0 3.090218 L0 4.299574" fill="none" stroke="black" stroke-width="0.5" />
  <path d="M0 4.299574 L5.89091 4.299574" fill="none" stroke="black" stroke-width="0.5" />
  <path d="M41.326594 0 L41.326594 0.57212" fill="none" stroke="black" stroke-width="0.5" />
  <path d="M40.182354 0 L40.182354 0.57212" fill="none" stroke="black" stroke-width="0.5" />
  <path d="M39.860536 0 L39.860536 0.893938" fill="none" stroke="black" stroke-width="0.5" />
  <path d="M41.648411 0 L41.648411 0.893938" fill="none" stroke="black" stroke-width="0.5" />
  <path d="M40.182354 0.57212 L41.326594 0.57212" fill="none" stroke="black" stroke-width="0.5" />
  <path d="M41.326594 0 L41.648411 0" fill="none" stroke="black" stroke-width="0.5" />
  <path d="M39.860536 0 L40.182354 0" fill="none" stroke="black" stroke-width="0.5" />
  <path d="M75.045918 0 L75.045918 0.57212" fill="none" stroke="black" stroke-width="0.5" />
  <path d="M74.7241 0 L74.7241 0.893938" fill="none" stroke="black" stroke-width="0.5" />
  <path d="M76.190158 0 L76.190158 0.57212" fill="none" stroke="black" stroke-width="0.5" />
  <path d="M76.511976 0 L76.511976 0.893938" fill="none" stroke="black" stroke-width="0.5" />
  <path d="M75.045918 0.57212 L76.190158 0.57212" fill="none" stroke="black" stroke-width="0.5" />
  <path d="M74.7241 0 L75.045918 0" fill="none" stroke="black" stroke-width="0.5" />
  <path d="M76.190158 0 L76.511976 0" fill="none" stroke="black" stroke-width="0.5" />
  <path d="M60.2544 9.064713 C58.964515 8.70567 57.58567 8.860631 56.407657 9.497028" fill="none" stroke="black" stroke-width="0.5" />
  <path d="M60.921705 9.943134 C60.921705 9.53372 60.648819 9.174501 60.2544 9.064713" fill="none" stroke="black" stroke-width="0.5" />
  <path d="M56.407657 9.497028 C55.818189 9.815476 55.450807 10.431512 55.450807 11.101498" fill="none" stroke="black" stroke-width="0.5" />
  <path d="M48.214313 16.281206 C48.195363 16.950925 48.545175 17.577105 49.1254 17.912098" fill="none" stroke="black" stroke-width="0.5" />
  <path d="M49.763289 12.733672 C48.807406 13.671223 48.252183 14.942819 48.214313 16.281206" fill="none" stroke="black" stroke-width="0.5" />
  <path d="M47.695145 23.65372 C48.029147 24.950314 48.85277 26.066949 49.992912 26.768939" fill="none" stroke="black" stroke-width="0.5" />
  <path d="M50.857676 12.59498 C50.503113 12.390272 50.055578 12.446989 49.763289 12.733672" fill="none" stroke="black" stroke-width="0.5" />
  <path d="M48.122227 22.636606 C47.767664 22.841314 47.593015 23.257249 47.695145 23.65372" fill="none" stroke="black" stroke-width="0.5" />
  <path d="M56.118112 30.904809 C57.407997 31.263852 58.786842 31.108891 59.964854 30.472494" fill="none" stroke="black" stroke-width="0.5" />
  <path d="M55.450807 30.026388 C55.450807 30.435802 55.723693 30.795021 56.118112 30.904809" fill="none" stroke="black" stroke-width="0.5" />
  <path d="M57.456803 18.583601 L57.456803 17.882907" fill="none" stroke="black" stroke-width="0.5" />
  <path d="M58.915709 18.583601 L58.915709 17.691386" fill="none" stroke="black" stroke-width="0.5" />
  <path d="M59.30325 18.867767 L66.245649 11.925368" fill="none" stroke="black" stroke-width="0.5" />
  <path d="M56.647582 17.799711 C57.800341 18.015746 58.992356 17.812665 60.008551 17.227112" fill="none" stroke="black" stroke-width="0.5" />
  <path d="M61.12803 19.984761 C61.12803 21.609458 59.810953 22.926536 58.186256 22.926536 C56.561559 22.926536 55.244482 21.609458 55.244482 19.984761 C55.244482 18.360064 56.561559 17.042987 58.186256 17.042987 C59.810953 17.042987 61.12803 18.360064 61.12803 19.984761" fill="none" stroke="black" stroke-width="0.5" />
  <path d="M62.852361 19.984761 C62.852361 22.56178 60.763274 24.650866 58.186256 24.650866 C55.609237 24.650866 53.520151 22.56178 53.520151 19.984761 C53.520151 17.407743 55.609237 15.318656 58.186256 15.318656 C60.763274 15.318656 62.852361 17.407743 62.852361 19.984761" fill="none" stroke="black" stroke-width="0.5" />
  <path d="M55.524611 20.224767 C56.288081 19.334465 56.708216 18.20061 56.709209 17.027783" fill="none" stroke="black" stroke-width="0.5" />
  <path d="M59.309228 17.559706 C59.698516 18.666042 60.470396 19.596816 61.485597 20.18409" fill="none" stroke="black" stroke-width="0.5" />
  <path d="M63.310567 20.184863 L68.250284 17.332916" fill="none" stroke="black" stroke-width="0.5" />
  <path d="M59.03497 18.652456 L59.641788 18.302109" fill="none" stroke="black" stroke-width="0.5" />
  <path d="M59.724929 22.169811 C58.57217 21.953777 57.380156 22.156857 56.363961 22.74241" fill="none" stroke="black" stroke-width="0.5" />
  <path d="M59.30325 21.101755 L66.245649 28.044155" fill="none" stroke="black" stroke-width="0.5" />
  <path d="M59.03497 21.317066 L59.807651 21.763174" fill="none" stroke="black" stroke-width="0.5" />
  <path d="M59.765924 19.984761 C59.765924 20.857188 59.058683 21.56443 58.186256 21.56443 C57.313829 21.56443 56.606587 20.857188 56.606587 19.984761 C56.606587 19.112334 57.313829 18.405093 58.186256 18.405093 C59.058683 18.405093 59.765924 19.112334 59.765924 19.984761" fill="none" stroke="black" stroke-width="0.5" />
  <path d="M68.158199 23.688316 C68.177148 23.018598 67.827337 22.392418 67.247112 22.057425" fill="none" stroke="black" stroke-width="0.5" />
  <path d="M65.514835 27.374543 C65.869399 27.57925 66.316934 27.522533 66.609223 27.23585" fill="none" stroke="black" stroke-width="0.5" />
  <path d="M66.609223 27.23585 C67.565106 26.298299 68.120328 25.026703 68.158199 23.688316" fill="none" stroke="black" stroke-width="0.5" />
  <path d="M59.764423 20.053617 L60.371241 20.403963" fill="none" stroke="black" stroke-width="0.5" />
  <path d="M61.485597 20.18409 C62.050033 20.510605 62.745856 20.510899 63.310567 20.184863" fill="none" stroke="black" stroke-width="0.5" />
  <path d="M60.575118 24.522596 L65.514835 27.374543" fill="none" stroke="black" stroke-width="0.5" />
  <path d="M63.657154 19.984761 L67.247112 22.057425" fill="none" stroke="black" stroke-width="0.5" />
  <path d="M59.964854 30.472494 C60.554323 30.154046 60.921705 29.538011 60.921705 28.868024" fill="none" stroke="black" stroke-width="0.5" />
  <path d="M60.921705 24.722698 L60.921705 28.868024" fill="none" stroke="black" stroke-width="0.5" />
  <path d="M59.764423 19.915906 L60.537104 19.469798" fill="none" stroke="black" stroke-width="0.5" />
  <path d="M59.663303 22.941739 C59.662751 23.593812 60.010407 24.196559 60.575118 24.522596" fill="none" stroke="black" stroke-width="0.5" />
  <path d="M60.847901 19.744756 C60.084431 20.635057 59.664296 21.768912 59.663303 22.941739" fill="none" stroke="black" stroke-width="0.5" />
  <path d="M57.337542 18.652456 L56.564861 18.206349" fill="none" stroke="black" stroke-width="0.5" />
  <path d="M54.886914 19.785432 C54.322479 19.458918 53.626656 19.458623 53.061944 19.78466" fill="none" stroke="black" stroke-width="0.5" />
  <path d="M57.337542 21.317066 L56.730724 21.667413" fill="none" stroke="black" stroke-width="0.5" />
  <path d="M57.456803 21.385922 L57.456803 22.278136" fill="none" stroke="black" stroke-width="0.5" />
  <path d="M58.915709 21.385922 L58.915709 22.086615" fill="none" stroke="black" stroke-width="0.5" />
  <path d="M56.608089 20.053617 L55.835408 20.499724" fill="none" stroke="black" stroke-width="0.5" />
  <path d="M56.363961 22.74241 C55.798973 23.067969 55.450807 23.670421 55.450807 24.322494" fill="none" stroke="black" stroke-width="0.5" />
  <path d="M55.450807 24.322494 L55.450807 30.026388" fill="none" stroke="black" stroke-width="0.5" />
  <path d="M57.063284 22.409816 C56.673996 21.303481 55.902116 20.372706 54.886914 19.785432" fill="none" stroke="black" stroke-width="0.5" />
  <path d="M56.608089 19.915906 L56.001271 19.565559" fill="none" stroke="black" stroke-width="0.5" />
  <path d="M68.250284 17.332916 C68.604847 17.128209 68.779497 16.712274 68.677367 16.315802" fill="none" stroke="black" stroke-width="0.5" />
  <path d="M68.677367 16.315802 C68.343365 15.019208 67.519742 13.902573 66.3796 13.200583" fill="none" stroke="black" stroke-width="0.5" />
  <path d="M60.921705 15.246825 L64.511663 13.174161" fill="none" stroke="black" stroke-width="0.5" />
  <path d="M60.008551 17.227112 C60.573538 16.901554 60.921705 16.299101 60.921705 15.647028" fill="none" stroke="black" stroke-width="0.5" />
  <path d="M66.3796 13.200583 C65.809082 12.849313 65.091888 12.839168 64.511663 13.174161" fill="none" stroke="black" stroke-width="0.5" />
  <path d="M56.709209 17.027783 C56.709761 16.37571 56.362105 15.772963 55.797393 15.446926" fill="none" stroke="black" stroke-width="0.5" />
  <path d="M55.450807 24.722698 L51.860849 26.795361" fill="none" stroke="black" stroke-width="0.5" />
  <path d="M49.992912 26.768939 C50.56343 27.12021 51.280623 27.130354 51.860849 26.795361" fill="none" stroke="black" stroke-width="0.5" />
  <path d="M53.061944 19.78466 L48.122227 22.636606" fill="none" stroke="black" stroke-width="0.5" />
  <path d="M52.715358 19.984761 L49.1254 17.912098" fill="none" stroke="black" stroke-width="0.5" />
  <path d="M57.069262 18.867767 L50.126862 11.925368" fill="none" stroke="black" stroke-width="0.5" />
  <path d="M65.197449 19.984761 C65.197449 23.856936 62.058431 26.995955 58.186256 26.995955 C54.314081 26.995955 51.175062 23.856936 51.175062 19.984761 C51.175062 16.112586 54.314081 12.973568 58.186256 12.973568 C62.058431 12.973568 65.197449 16.112586 65.197449 19.984761" fill="none" stroke="black" stroke-width="0.5" />
  <path d="M57.069262 21.101755 L50.126862 28.044155" fill="none" stroke="black" stroke-width="0.5" />
  <path d="M55.797393 15.446926 L50.857676 12.59498" fill="none" stroke="black" stroke-width="0.5" />
  <path d="M40.754474 0.893938 L40.754474 39.075585" fill="none" stroke="black" stroke-width="0.5" />
  <path d="M75.618038 0.893938 L75.618038 39.075585" fill="none" stroke="black" stroke-width="0.5" />
  <path d="M69.58396 19.984761 C69.58396 26.279539 64.481034 31.382465 58.186256 31.382465 C51.891478 31.382465 46.788552 26.279539 46.788552 19.984761 C46.788552 13.689983 51.891478 8.587058 58.186256 8.587058 C64.481034 8.587058 69.58396 13.689983 69.58396 19.984761" fill="none" stroke="black" stroke-width="0.5" />
  <path d="M67.416629 19.984761 C67.416629 25.082555 63.28405 29.215134 58.186256 29.215134 C53.088462 29.215134 48.955883 25.082555 48.955883 19.984761 C48.955883 14.886967 53.088462 10.754389 58.186256 10.754389 C63.28405 10.754389 67.416629 14.886967 67.416629 19.984761" fill="none" stroke="black" stroke-width="0.5" />
  <path d="M60.921705 15.647028 L60.921705 9.943134" fill="none" stroke="black" stroke-width="0.5" />
  <path d="M55.450807 15.246825 L55.450807 11.101498" fill="none" stroke="black" stroke-width="0.5" />
  <path d="M39.860536 0.893938 L76.511976 0.893938" fill="none" stroke="black" stroke-width="0.5" />
  <path d="M40.754474 0.893938 L40.754474 2.939392" fill="none" stroke="black" stroke-width="0.5" />
  <path d="M76.190158 0 L76.190158 0.57212" fill="none" stroke="black" stroke-width="0.5" />
  <path d="M75.045918 0 L75.045918 0.57212" fill="none" stroke="black" stroke-width="0.5" />
  <path d="M74.7241 0 L74.7241 0.893938" fill="none" stroke="black" stroke-width="0.5" />
  <path d="M76.511976 0 L76.511976 0.893938" fill="none" stroke="black" stroke-width="0.5" />
  <path d="M75.045918 0.57212 L76.190158 0.57212" fill="none" stroke="black" stroke-width="0.5" />
  <path d="M76.190158 0 L76.511976 0" fill="none" stroke="black" stroke-width="0.5" />
  <path d="M74.7241 0 L75.045918 0" fill="none" stroke="black" stroke-width="0.5" />
  <path d="M93.04982 8.920179 C92.426842 9.002853 91.824136 9.198327 91.271222 9.497028" fill="none" stroke="black" stroke-width="0.5" />
  <path d="M91.271222 9.497028 C90.681753 9.815476 90.314371 10.431512 90.314371 11.101498" fill="none" stroke="black" stroke-width="0.5" />
  <path d="M83.077878 16.281206 C83.058928 16.950925 83.408739 17.577105 83.988964 17.912098" fill="none" stroke="black" stroke-width="0.5" />
  <path d="M84.626853 12.733672 C83.67097 13.671223 83.115748 14.942819 83.077878 16.281206" fill="none" stroke="black" stroke-width="0.5" />
  <path d="M82.558709 23.65372 C82.892711 24.950314 83.716334 26.066949 84.856476 26.768939" fill="none" stroke="black" stroke-width="0.5" />
  <path d="M85.721241 12.59498 C85.366677 12.390272 84.919142 12.446989 84.626853 12.733672" fill="none" stroke="black" stroke-width="0.5" />
  <path d="M82.985792 22.636606 C82.631229 22.841314 82.456579 23.257249 82.558709 23.65372" fill="none" stroke="black" stroke-width="0.5" />
  <path d="M90.981676 30.904809 C91.654247 31.092021 92.357748 31.141186 93.04982 31.049343" fill="none" stroke="black" stroke-width="0.5" />
  <path d="M90.314371 30.026388 C90.314371 30.435802 90.587257 30.795021 90.981676 30.904809" fill="none" stroke="black" stroke-width="0.5" />
  <path d="M92.320367 18.583601 L92.320367 17.882907" fill="none" stroke="black" stroke-width="0.5" />
  <path d="M91.511147 17.799711 C92.018588 17.894809 92.537838 17.909405 93.04982 17.842962" fill="none" stroke="black" stroke-width="0.5" />
  <path d="M93.04982 17.042987 C91.998825 17.042987 91.027666 17.603686 90.502169 18.513874 C89.976671 19.424062 89.976671 20.54546 90.502169 21.455648 C91.027666 22.365837 91.998825 22.926536 93.04982 22.926536" fill="none" stroke="black" stroke-width="0.5" />
  <path d="M93.04982 15.318656 C91.382781 15.318656 89.842374 16.208011 89.008855 17.651709 C88.175336 19.095407 88.175336 20.874116 89.008855 22.317814 C89.842374 23.761511 91.382781 24.650866 93.04982 24.650866" fill="none" stroke="black" stroke-width="0.5" />
  <path d="M90.388175 20.224767 C91.151645 19.334465 91.57178 18.20061 91.572773 17.027783" fill="none" stroke="black" stroke-width="0.5" />
  <path d="M93.04982 22.12656 C92.40777 22.209882 91.788493 22.419169 91.227525 22.74241" fill="none" stroke="black" stroke-width="0.5" />
  <path d="M93.04982 18.405093 C92.485459 18.405093 91.963968 18.706176 91.681787 19.194927 C91.399607 19.683678 91.399607 20.285844 91.681787 20.774595 C91.963968 21.263347 92.485459 21.56443 93.04982 21.56443" fill="none" stroke="black" stroke-width="0.5" />
  <path d="M92.201106 18.652456 L91.428425 18.206349" fill="none" stroke="black" stroke-width="0.5" />
  <path d="M89.750479 19.785432 C89.186043 19.458918 88.49022 19.458623 87.925509 19.78466" fill="none" stroke="black" stroke-width="0.5" />
  <path d="M92.201106 21.317066 L91.594288 21.667413" fill="none" stroke="black" stroke-width="0.5" />
  <path d="M92.320367 21.385922 L92.320367 22.278136" fill="none" stroke="black" stroke-width="0.5" />
  <path d="M91.471653 20.053617 L90.698972 20.499724" fill="none" stroke="black" stroke-width="0.5" />
  <path d="M91.227525 22.74241 C90.662538 23.067969 90.314371 23.670421 90.314371 24.322494" fill="none" stroke="black" stroke-width="0.5" />
  <path d="M90.314371 24.322494 L90.314371 30.026388" fill="none" stroke="black" stroke-width="0.5" />
  <path d="M91.926848 22.409816 C91.53756 21.303481 90.76568 20.372706 89.750479 19.785432" fill="none" stroke="black" stroke-width="0.5" />
  <path d="M91.471653 19.915906 L90.864835 19.565559" fill="none" stroke="black" stroke-width="0.5" />
  <path d="M91.572773 17.027783 C91.573325 16.37571 91.225669 15.772963 90.660958 15.446926" fill="none" stroke="black" stroke-width="0.5" />
  <path d="M90.314371 24.722698 L86.724413 26.795361" fill="none" stroke="black" stroke-width="0.5" />
  <path d="M84.856476 26.768939 C85.426994 27.12021 86.144188 27.130354 86.724413 26.795361" fill="none" stroke="black" stroke-width="0.5" />
  <path d="M87.925509 19.78466 L82.985792 22.636606" fill="none" stroke="black" stroke-width="0.5" />
  <path d="M87.578922 19.984761 L83.988964 17.912098" fill="none" stroke="black" stroke-width="0.5" />
  <path d="M91.932826 18.867767 L84.990427 11.925368" fill="none" stroke="black" stroke-width="0.5" />
  <path d="M93.04982 12.973568 C90.544962 12.973568 88.230378 14.309894 86.977948 16.479164 C85.725519 18.648435 85.725519 21.321087 86.977948 23.490358 C88.230378 25.659629 90.544962 26.995955 93.04982 26.995955" fill="none" stroke="black" stroke-width="0.5" />
  <path d="M91.932826 21.101755 L84.990427 28.044155" fill="none" stroke="black" stroke-width="0.5" />
  <path d="M90.660958 15.446926 L85.721241 12.59498" fill="none" stroke="black" stroke-width="0.5" />
  <path d="M75.618038 0.893938 L75.618038 39.075585" fill="none" stroke="black" stroke-width="0.5" />
  <path d="M93.04982 8.587058 C88.977813 8.587058 85.215123 10.759448 83.179119 14.285909 C81.143116 17.812371 81.143116 22.157151 83.179119 25.683613 C85.215123 29.210075 88.977813 31.382465 93.04982 31.382465" fill="none" stroke="black" stroke-width="0.5" />
  <path d="M93.04982 10.754389 C89.752126 10.754389 86.70493 12.513688 85.056083 15.369575 C83.407236 18.225462 83.407236 21.74406 85.056083 24.599948 C86.70493 27.455835 89.752126 29.215134 93.04982 29.215134" fill="none" stroke="black" stroke-width="0.5" />
  <path d="M90.314371 15.246825 L90.314371 11.101498" fill="none" stroke="black" stroke-width="0.5" />
  <path d="M74.7241 0.893938 L93.04982 0.893938" fill="none" stroke="black" stroke-width="0.5" />
  <path d="M75.618038 0.893938 L75.618038 2.939392" fill="none" stroke="black" stroke-width="0.5" />
  <path d="M93.04982 0.893938 L93.04982 42.56932" fill="none" stroke="black" stroke-width="0.5" />
  <path d="M5.89091 12.692313 L0 12.692313" fill="none" stroke="black" stroke-width="0.5" />
  <path d="M0 12.692313 L0 13.901669" fill="none" stroke="black" stroke-width="0.5" />
  <path d="M0 13.901669 L5.89091 13.901669" fill="none" stroke="black" stroke-width="0.5" />
  <path d="M5.89091 33.146858 L0 33.146858" fill="none" stroke="black" stroke-width="0.5" />
  <path d="M0 33.146858 L0 34.356214" fill="none" stroke="black" stroke-width="0.5" />
  <path d="M0 34.356214 L5.89091 34.356214" fill="none" stroke="black" stroke-width="0.5" />
  <path d="M5.89091 23.328677 L0 23.328677" fill="none" stroke="black" stroke-width="0.5" />
  <path d="M0 23.328677 L0 24.538032" fill="none" stroke="black" stroke-width="0.5" />
  <path d="M0 24.538032 L5.89091 24.538032" fill="none" stroke="black" stroke-width="0.5" />
</svg>