<svg width="24.769348000000008" height="38.79229099999998" viewBox="0 0 24.769348000000008 38.79229099999998" fill="none" xmlns="http://www.w3.org/2000/svg">
  <path d="M7.00384 32.850154 C7.00384 33.964781 6.100257 34.868364 4.985631 34.868364 C3.871005 34.868364 2.967422 33.964781 2.967422 32.850154 C2.967422 31.735528 3.871005 30.831945 4.985631 30.831945 C6.100257 30.831945 7.00384 31.735528 7.00384 32.850154" fill="none" stroke="black" stroke-width="0.5" />
  <path d="M7.00384 6.256635 C7.00384 7.371261 6.100257 8.274844 4.985631 8.274844 C3.871005 8.274844 2.967422 7.371261 2.967422 6.256635 C2.967422 5.142009 3.871005 4.238425 4.985631 4.238425 C6.100257 4.238425 7.00384 5.142009 7.00384 6.256635" fill="none" stroke="black" stroke-width="0.5" />
  <path d="M24.769348 2.377137 L24.769348 36.415154" fill="none" stroke="black" stroke-width="0.5" />
  <path d="M22.392211 38.792291 L2.377137 38.792291" fill="none" stroke="black" stroke-width="0.5" />
  <path d="M22.392211 38.792291 C23.705067 38.792291 24.769348 37.72801 24.769348 36.415154" fill="none" stroke="black" stroke-width="0.5" />
  <path d="M0 36.415154 L0 2.377137" fill="none" stroke="black" stroke-width="0.5" />
  <path d="M0 36.415154 C0 37.72801 1.064281 38.792291 2.377137 38.792291" fill="none" stroke="black" stroke-width="0.5" />
  <path d="M2.377137 0 C1.064281 0 0 1.06428 0 2.377137" fill="none" stroke="black" stroke-width="0.5" />
  <path d="M2.377137 0 L22.392211 0" fill="none" stroke="black" stroke-width="0.5" />
  <path d="M24.769348 2.377137 C24.769348 1.06428 23.705067 0 22.392211 0" fill="none" stroke="black" stroke-width="0.5" />
  <path d="M21.801926 6.256635 C21.801926 7.371261 20.898343 8.274844 19.783717 8.274844 C18.66909 8.274844 17.765507 7.371261 17.765507 6.256635 C17.765507 5.142009 18.66909 4.238425 19.783717 4.238425 C20.898343 4.238425 21.801926 5.142009 21.801926 6.256635" fill="none" stroke="black" stroke-width="0.5" />
  <path d="M21.801926 32.850154 C21.801926 33.964781 20.898343 34.868364 19.783717 34.868364 C18.66909 34.868364 17.765507 33.964781 17.765507 32.850154 C17.765507 31.735528 18.66909 30.831945 19.783717 30.831945 C20.898343 30.831945 21.801926 31.735528 21.801926 32.850154" fill="none" stroke="black" stroke-width="0.5" />
</svg>