<svg width="83.02076000000001" height="79.454872" viewBox="0 0 83.02076000000001 79.454872" fill="none" xmlns="http://www.w3.org/2000/svg">
  <path d="M49.773071 5.016356 L83.018634 5.016356" fill="none" stroke="black" stroke-width="0.5" />
  <path d="M83.018634 4.155961 L49.773071 4.155961" fill="none" stroke="black" stroke-width="0.5" />
  <path d="M81.630831 0.000266 L51.15715 0.000266" fill="none" stroke="black" stroke-width="0.5" />
  <path d="M57.17965 8.132928 L81.630831 8.132928" fill="none" stroke="black" stroke-width="0.5" />
  <path d="M81.630762 8.132923 C81.998686 8.134 82.35194 7.988737 82.612673 7.729147 C82.873407 7.469557 83.020221 7.116945 83.02076 6.74902" fill="none" stroke="black" stroke-width="0.5" />
  <path d="M83.018634 6.749115 L83.018634 5.016356" fill="none" stroke="black" stroke-width="0.5" />
  <path d="M83.018899 1.386039 C83.017779 0.620223 82.396648 0 81.630831 0" fill="none" stroke="black" stroke-width="0.5" />
  <path d="M83.018634 1.386207 L83.018634 4.155961" fill="none" stroke="black" stroke-width="0.5" />
  <path d="M57.17965 8.132928 L51.15715 8.132928" fill="none" stroke="black" stroke-width="0.5" />
  <path d="M57.865307 14.660761 L57.17965 8.132928" fill="none" stroke="black" stroke-width="0.5" />
  <path d="M75.884136 7.962445 L68.611869 52.439424" fill="none" stroke="black" stroke-width="0.5" />
  <path d="M57.865307 14.660761 L58.75815 22.272134" fill="none" stroke="black" stroke-width="0.5" />
  <path d="M68.116643 54.170321 L68.611869 52.439424" fill="none" stroke="black" stroke-width="0.5" />
  <path d="M49.773072 6.749017 C49.774189 7.513246 50.392847 8.132812 51.157075 8.13505" fill="none" stroke="black" stroke-width="0.5" />
  <path d="M49.773071 6.749115 L49.773071 5.016356" fill="none" stroke="black" stroke-width="0.5" />
  <path d="M51.157081 6e-06 C50.392851 0.00224 49.774189 0.621807 49.773072 1.386039" fill="none" stroke="black" stroke-width="0.5" />
  <path d="M49.773071 1.386207 L49.773071 4.155961" fill="none" stroke="black" stroke-width="0.5" />
  <path d="M17.254122 41.027419 L5.971908 41.027419" fill="none" stroke="black" stroke-width="0.5" />
  <path d="M17.120076 51.0596 L5.971908 51.0596" fill="none" stroke="black" stroke-width="0.5" />
  <path d="M5.971908 41.078218 L5.971908 51.0596" fill="none" stroke="black" stroke-width="0.5" />
  <path d="M58.563843 22.080704 C47.710537 11.931545 31.429472 10.24456 18.725845 17.952836 C6.022217 25.661112 0 40.881227 3.990134 55.194805 C7.980267 69.508383 21.007812 79.418079 35.867121 79.442755" fill="none" stroke="black" stroke-width="0.5" />
  <path d="M35.896539 74.275105 C50.567617 74.284361 62.75447 62.960057 63.820262 48.32774 C64.886053 33.695423 54.468809 20.724678 39.95124 18.607885 C25.433671 16.491092 11.746391 25.94718 8.58959 40.274609" fill="none" stroke="black" stroke-width="0.5" />
  <path d="M35.896539 79.452375 C51.178693 79.454872 64.484176 69.014525 68.116675 54.170361" fill="none" stroke="black" stroke-width="0.5" />
  <path d="M55.30859 46.29724 C55.30859 57.006267 46.627208 65.687648 35.918181 65.687648 C25.209155 65.687648 16.527773 57.006267 16.527773 46.29724 C16.527773 35.588213 25.209155 26.906831 35.918181 26.906831 C46.627208 26.906831 55.30859 35.588213 55.30859 46.29724" fill="none" stroke="black" stroke-width="0.5" />
  <path d="M8.50866 51.934248 C11.181198 64.925866 22.603499 74.259148 35.867121 74.289135" fill="none" stroke="black" stroke-width="0.5" />
  <path d="M35.918181 18.315114 L35.910203 18.315114" fill="none" stroke="black" stroke-width="0.5" />
</svg>