<svg width="72.29258200000001" height="96.39717099999999" viewBox="0 0 72.29258200000001 96.39717099999999" fill="none" xmlns="http://www.w3.org/2000/svg">
  <path d="M72.292582 11.113418 L72.174437 10.134872 L71.820982 9.165818 L71.235819 8.215418 L70.424182 7.292836 L69.103964 6.192545 L67.462364 5.166218 L65.524255 4.229563 L63.318764 3.396 L60.36611 2.550327 L57.14051 1.889891 L53.711346 1.429091 L50.153237 1.178072 L46.542764 1.142072 L42.9588 1.321745 L39.478255 1.713491 L36.176728 2.3088 L33.125564 3.094582 L30.390873 4.054145 L28.3968 4.971163 L26.694 5.9808 L25.307673 7.067672 L24.440728 7.981745 L23.798291 8.925927 L23.386255 9.891382 L23.2092 10.868291 L23.201673 11.113418 L23.201673 11.113418" fill="none" stroke="black" stroke-width="0.5" />
  <path d="M23.201673 86.386145 L23.312619 87.3336 L23.643819 88.272218 L24.192655 89.194145 L25.063855 90.200182 L26.193928 91.163018 L27.737673 92.1684 L29.563528 93.091963 L31.866873 93.998509 L34.440873 94.775454 L37.50611 95.459127 L40.778837 95.958872 L44.193273 96.264545 L46.513964 96.356836 L46.513964 96.356836" fill="none" stroke="black" stroke-width="0.5" />
  <path d="M48.968837 96.357163 L52.726255 96.162109 L56.3652 95.734036 L59.544 95.141018 L62.48291 94.370291 L64.915855 93.521018 L67.055891 92.55 L68.866364 91.473927 L70.200328 90.419454 L71.130437 89.4216 L71.793491 88.389382 L72.15251 87.451745 L72.290946 86.504945 L72.292582 86.386145 L72.292582 86.386145" fill="none" stroke="black" stroke-width="0.5" />
  <path d="M4.484732 94.351536 L8.340561 94.351536" fill="none" stroke="black" stroke-width="0.5" />
  <path d="M7.562988 87.259716 C7.524115 87.169202 7.474689 87.083596 7.415736 87.004677" fill="none" stroke="black" stroke-width="0.5" />
  <path d="M7.158352 87.153277 L7.67801 86.853255" fill="none" stroke="black" stroke-width="0.5" />
  <path d="M7.305603 87.408321 L7.819474 87.111638" fill="none" stroke="black" stroke-width="0.5" />
  <path d="M5.2629 88.24762 C5.301772 88.338137 5.351198 88.423746 5.410151 88.502668" fill="none" stroke="black" stroke-width="0.5" />
  <path d="M5.667536 88.354068 L5.153666 88.650755" fill="none" stroke="black" stroke-width="0.5" />
  <path d="M5.006414 88.395703 L5.520285 88.099015" fill="none" stroke="black" stroke-width="0.5" />
  <path d="M7.672259 86.85658 C7.20991 86.207534 6.329996 86.016197 5.639871 86.414637 C4.949747 86.813078 4.675486 87.670772 5.006396 88.395703" fill="none" stroke="black" stroke-width="0.5" />
  <path d="M5.153665 88.650756 C5.616024 89.299773 6.49592 89.491088 7.186026 89.09265 C7.876131 88.694212 8.150386 87.836539 7.819492 87.11162" fill="none" stroke="black" stroke-width="0.5" />
  <path d="M7.37008 87.75367 C7.37008 88.282282 6.941555 88.710806 6.412944 88.710806 C5.884333 88.710806 5.455808 88.282282 5.455808 87.75367 C5.455808 87.225059 5.884333 86.796535 6.412944 86.796535 C6.941555 86.796535 7.37008 87.225059 7.37008 87.75367" fill="none" stroke="black" stroke-width="0.5" />
  <path d="M8.340561 94.351536 L8.340561 48.262944" fill="none" stroke="black" stroke-width="0.5" />
  <path d="M8.340561 48.262944 L8.340561 1.130019" fill="none" stroke="black" stroke-width="0.5" />
  <path d="M4.484732 1.130019 L4.484732 48.262944" fill="none" stroke="black" stroke-width="0.5" />
  <path d="M4.484732 48.262944 L4.484732 94.351536" fill="none" stroke="black" stroke-width="0.5" />
  <path d="M7.563019 34.813064 C7.524146 34.72255 7.47472 34.636944 7.415767 34.558025" fill="none" stroke="black" stroke-width="0.5" />
  <path d="M7.158383 34.706625 L7.678041 34.406603" fill="none" stroke="black" stroke-width="0.5" />
  <path d="M7.305635 34.961668 L7.819505 34.664986" fill="none" stroke="black" stroke-width="0.5" />
  <path d="M5.262931 35.800968 C5.301803 35.891485 5.351229 35.977093 5.410183 36.056016" fill="none" stroke="black" stroke-width="0.5" />
  <path d="M5.667567 35.907416 L5.153697 36.204103" fill="none" stroke="black" stroke-width="0.5" />
  <path d="M5.006445 35.949051 L5.520316 35.652363" fill="none" stroke="black" stroke-width="0.5" />
  <path d="M7.67229 34.409928 C7.209941 33.760882 6.330027 33.569545 5.639903 33.967985 C4.949778 34.366425 4.675518 35.22412 5.006428 35.949051" fill="none" stroke="black" stroke-width="0.5" />
  <path d="M5.153697 36.204104 C5.616055 36.853121 6.495951 37.044436 7.186057 36.645998 C7.876163 36.24756 8.150417 35.389887 7.819523 34.664968" fill="none" stroke="black" stroke-width="0.5" />
  <path d="M7.370111 35.307018 C7.370111 35.83563 6.941587 36.264154 6.412975 36.264154 C5.884364 36.264154 5.45584 35.83563 5.45584 35.307018 C5.45584 34.778407 5.884364 34.349883 6.412975 34.349883 C6.941587 34.349883 7.370111 34.778407 7.370111 35.307018" fill="none" stroke="black" stroke-width="0.5" />
  <path d="M8.340561 17.613104 L13.470041 17.613104" fill="none" stroke="black" stroke-width="0.5" />
  <path d="M18.072314 17.613104 L23.201794 17.613104" fill="none" stroke="black" stroke-width="0.5" />
  <path d="M15.771178 17.613104 L15.771178 15.887252" fill="none" stroke="black" stroke-width="0.5" />
  <path d="M14.620609 15.887252 L16.921746 15.887252" fill="none" stroke="black" stroke-width="0.5" />
  <path d="M15.171923 17.613104 L15.174809 17.671841 L15.183438 17.730013 L15.197727 17.787058 L15.217539 17.842429 L15.242683 17.89559 L15.272916 17.946032 L15.307948 17.993267 L15.347441 18.036841 L15.391015 18.076334 L15.43825 18.111366 L15.488691 18.141599 L15.541853 18.166743 L15.597223 18.186555 L15.654269 18.200844 L15.71244 18.209473 L15.771178 18.212358 L15.829915 18.209473 L15.888086 18.200844 L15.945132 18.186555 L16.000502 18.166743 L16.053664 18.141599 L16.104105 18.111366 L16.151341 18.076334 L16.194914 18.036841 L16.234407 17.993267 L16.269439 17.946032 L16.299673 17.89559 L16.324816 17.842429 L16.344628 17.787058 L16.358917 17.730013 L16.367546 17.671841 L16.370432 17.613104 L15.771178 17.613104 z" fill="none" stroke="black" stroke-width="0.5" />
  <path d="M16.370432 17.613104 L16.367546 17.554367 L16.358917 17.496195 L16.344628 17.43915 L16.324816 17.383779 L16.299673 17.330617 L16.269439 17.280176 L16.234407 17.232941 L16.194914 17.189367 L16.151341 17.149874 L16.104105 17.114842 L16.053664 17.084609 L16.000502 17.059465 L15.945132 17.039653 L15.888086 17.025364 L15.829915 17.016735 L15.771178 17.01385 L15.71244 17.016735 L15.654269 17.025364 L15.597223 17.039653 L15.541853 17.059465 L15.488691 17.084609 L15.43825 17.114842 L15.391015 17.149874 L15.347441 17.189367 L15.307948 17.232941 L15.272916 17.280176 L15.242683 17.330617 L15.217539 17.383779 L15.197727 17.43915 L15.183438 17.496195 L15.174809 17.554367 L15.171923 17.613104 L15.771178 17.613104 z" fill="none" stroke="black" stroke-width="0.5" />
  <path d="M13.470041 16.462536 L13.470041 18.763672" fill="none" stroke="black" stroke-width="0.5" />
  <path d="M18.072314 16.462536 L18.072314 18.763672" fill="none" stroke="black" stroke-width="0.5" />
  <path d="M18.072314 16.462536 L13.470041 18.763672" fill="none" stroke="black" stroke-width="0.5" />
  <path d="M13.470041 16.462536 L18.072314 18.763672" fill="none" stroke="black" stroke-width="0.5" />
  <path d="M15.764852 89.546139 L15.764852 87.820287" fill="none" stroke="black" stroke-width="0.5" />
  <path d="M14.614284 87.820287 L16.91542 87.820287" fill="none" stroke="black" stroke-width="0.5" />
  <path d="M15.165598 89.546139 L15.168483 89.604876 L15.177112 89.663048 L15.191401 89.720093 L15.211213 89.775464 L15.236357 89.828625 L15.26659 89.879067 L15.301622 89.926302 L15.341115 89.969876 L15.384689 90.009369 L15.431924 90.044401 L15.482365 90.074634 L15.535527 90.099778 L15.590898 90.11959 L15.647943 90.133879 L15.706115 90.142508 L15.764852 90.145393 L15.823589 90.142508 L15.881761 90.133879 L15.938806 90.11959 L15.994177 90.099778 L16.047338 90.074634 L16.09778 90.044401 L16.145015 90.009369 L16.188589 89.969876 L16.228082 89.926302 L16.263114 89.879067 L16.293347 89.828625 L16.318491 89.775464 L16.338303 89.720093 L16.352592 89.663048 L16.361221 89.604876 L16.364106 89.546139 L15.764852 89.546139 z" fill="none" stroke="black" stroke-width="0.5" />
  <path d="M16.364106 89.546139 L16.361393 89.489176 L16.353277 89.432729 L16.339832 89.37731 L16.32118 89.323419 L16.29749 89.271545 L16.268977 89.222158 L16.235898 89.175705 L16.198553 89.132606 L16.15728 89.093253 L16.112454 89.058001 L16.064479 89.02717 L16.013791 89.001038 L15.960849 88.979843 L15.906131 88.963777 L15.850135 88.952984 L15.793366 88.947563 L15.736338 88.947563 L15.679569 88.952984 L15.623572 88.963777 L15.568855 88.979843 L15.515913 89.001038 L15.465225 89.02717 L15.41725 89.058001 L15.372424 89.093253 L15.331151 89.132606 L15.293806 89.175705 L15.260727 89.222158 L15.232214 89.271545 L15.208524 89.323419 L15.189872 89.37731 L15.176427 89.432729 L15.168311 89.489176 L15.165598 89.546139 L15.764852 89.546139 z" fill="none" stroke="black" stroke-width="0.5" />
  <path d="M13.463716 88.395571 L13.463716 90.696707" fill="none" stroke="black" stroke-width="0.5" />
  <path d="M18.065988 88.395571 L18.065988 90.696707" fill="none" stroke="black" stroke-width="0.5" />
  <path d="M18.065988 88.395571 L13.463716 90.696707" fill="none" stroke="black" stroke-width="0.5" />
  <path d="M13.463716 88.395571 L18.065988 90.696707" fill="none" stroke="black" stroke-width="0.5" />
  <path d="M2.590312 22.812582 L4.484732 22.812582" fill="none" stroke="black" stroke-width="0.5" />
  <path d="M2.244991 22.497948 L2.244991 22.227723" fill="none" stroke="black" stroke-width="0.5" />
  <path d="M1.332991 21.452394 L1.332991 19.718224" fill="none" stroke="black" stroke-width="0.5" />
  <path d="M0.912068 21.452394 L0.912068 19.718224" fill="none" stroke="black" stroke-width="0.5" />
  <path d="M0.450495 18.849244 L0.450495 16.498716" fill="none" stroke="black" stroke-width="0.5" />
  <path d="M1.803459 18.849244 L1.803459 16.498716" fill="none" stroke="black" stroke-width="0.5" />
  <path d="M1.691213 16.38647 L0.562741 16.38647" fill="none" stroke="black" stroke-width="0.5" />
  <path d="M0.562741 16.38647 C0.500749 16.38647 0.450495 16.436724 0.450495 16.498716" fill="none" stroke="black" stroke-width="0.5" />
  <path d="M1.803459 16.498716 C1.803459 16.436724 1.753204 16.38647 1.691213 16.38647" fill="none" stroke="black" stroke-width="0.5" />
  <path d="M6.8e-05 26.717569 L6.8e-05 22.227723" fill="none" stroke="black" stroke-width="0.5" />
  <path d="M2.244991 26.717569 L2.244991 23.127215" fill="none" stroke="black" stroke-width="0.5" />
  <path d="M2.245091 22.2276 L2.135455 21.986072 L1.795091 21.778582 L1.516255 21.702327 L1.516255 21.702327" fill="none" stroke="black" stroke-width="0.5" />
  <path d="M0.74762 21.698346 C1.00286 21.739285 1.2629 21.740466 1.518502 21.701847" fill="none" stroke="black" stroke-width="0.5" />
  <path d="M0.7488 21.6984 L0.187855 21.917018 L0.00131 22.200763 L0 22.2276 L0 22.2276" fill="none" stroke="black" stroke-width="0.5" />
  <path d="M2.246261 22.493306 C2.188632 22.702256 2.188632 22.922908 2.246261 23.131858" fill="none" stroke="black" stroke-width="0.5" />
  <path d="M2.244991 22.497948 L2.244991 22.227723" fill="none" stroke="black" stroke-width="0.5" />
  <path d="M1.332991 21.452394 L1.332991 19.718224" fill="none" stroke="black" stroke-width="0.5" />
  <path d="M0.912068 21.452394 L0.912068 19.718224" fill="none" stroke="black" stroke-width="0.5" />
  <path d="M0.450495 18.849244 L0.450495 16.498716" fill="none" stroke="black" stroke-width="0.5" />
  <path d="M1.803459 18.849244 L1.803459 16.498716" fill="none" stroke="black" stroke-width="0.5" />
  <path d="M1.691213 16.38647 L0.562741 16.38647" fill="none" stroke="black" stroke-width="0.5" />
  <path d="M0.562741 16.38647 C0.500749 16.38647 0.450495 16.436724 0.450495 16.498716" fill="none" stroke="black" stroke-width="0.5" />
  <path d="M1.803459 16.498716 C1.803459 16.436724 1.753204 16.38647 1.691213 16.38647" fill="none" stroke="black" stroke-width="0.5" />
  <path d="M1.11995 19.227031 L1.11995 19.230442 L0.34174 19.230442" fill="none" stroke="black" stroke-width="0.5" />
  <path d="M1.43555 27.256535 L1.43555 27.564087 L0.796999 27.564087 L0.796999 27.254679" fill="none" stroke="black" stroke-width="0.5" />
  <path d="M0.746383 21.698943 L0.746383 21.452394 L1.51675 21.452394 L1.51675 21.702245" fill="none" stroke="black" stroke-width="0.5" />
  <path d="M2.246261 22.493306 L2.590312 22.493306 L2.590312 23.131858 L2.246261 23.131858" fill="none" stroke="black" stroke-width="0.5" />
  <path d="M0.410004 19.121288 L0.410004 18.848402 L1.11995 18.848402" fill="none" stroke="black" stroke-width="0.5" />
  <path d="M1.11995 19.121288 L0.410004 19.121288" fill="none" stroke="black" stroke-width="0.5" />
  <path d="M1.835149 19.121288 L1.835149 18.848402 L1.125203 18.848402" fill="none" stroke="black" stroke-width="0.5" />
  <path d="M1.125203 19.121288 L1.835149 19.121288" fill="none" stroke="black" stroke-width="0.5" />
  <path d="M0.34174 19.230442 L0.34174 19.121288 L1.11995 19.121288" fill="none" stroke="black" stroke-width="0.5" />
  <path d="M1.125203 19.227031 L1.125203 19.230442 L1.903413 19.230442" fill="none" stroke="black" stroke-width="0.5" />
  <path d="M1.903413 19.230442 L1.903413 19.121288 L1.125203 19.121288" fill="none" stroke="black" stroke-width="0.5" />
  <path d="M1.43555 27.256535 L1.43555 27.564087 L0.796999 27.564087 L0.796999 27.254679" fill="none" stroke="black" stroke-width="0.5" />
  <path d="M0.746383 21.698943 L0.746383 21.452394 L1.51675 21.452394 L1.51675 21.702245" fill="none" stroke="black" stroke-width="0.5" />
  <path d="M2.246261 22.493306 L2.590312 22.493306 L2.590312 23.131858 L2.246261 23.131858" fill="none" stroke="black" stroke-width="0.5" />
  <path d="M1.11995 19.121288 L0.410004 19.121288" fill="none" stroke="black" stroke-width="0.5" />
  <path d="M0.410004 19.121288 L0.410004 18.848402 L1.11995 18.848402" fill="none" stroke="black" stroke-width="0.5" />
  <path d="M1.835149 19.121288 L1.835149 18.848402 L1.125203 18.848402" fill="none" stroke="black" stroke-width="0.5" />
  <path d="M1.125203 19.121288 L1.835149 19.121288" fill="none" stroke="black" stroke-width="0.5" />
  <path d="M0.34174 19.230442 L0.34174 19.121288 L1.11995 19.121288" fill="none" stroke="black" stroke-width="0.5" />
  <path d="M1.11995 19.227031 L1.11995 19.230442 L0.34174 19.230442" fill="none" stroke="black" stroke-width="0.5" />
  <path d="M1.903413 19.230442 L1.903413 19.121288 L1.125203 19.121288" fill="none" stroke="black" stroke-width="0.5" />
  <path d="M1.125203 19.227031 L1.125203 19.230442 L1.903413 19.230442" fill="none" stroke="black" stroke-width="0.5" />
  <path d="M2.245091 26.717454 L2.137091 26.958327 L1.76891 27.177927 L1.150037 27.280363 L0.476182 27.177927 L0.075273 26.920363 L0 26.717454 L0 26.717454" fill="none" stroke="black" stroke-width="0.5" />
  <path d="M1.116275 27.564087 L1.116275 29.500533" fill="none" stroke="black" stroke-width="0.5" />
  <path d="M1.116275 29.500533 L4.484732 29.500533" fill="none" stroke="black" stroke-width="0.5" />
  <path d="M8.862328 1.130019 L3.962965 1.130019" fill="none" stroke="black" stroke-width="0.5" />
  <path d="M8.862328 0 L3.962965 0" fill="none" stroke="black" stroke-width="0.5" />
  <path d="M3.962965 0 L3.962965 1.130019" fill="none" stroke="black" stroke-width="0.5" />
  <path d="M8.862328 0 L8.862328 1.130019" fill="none" stroke="black" stroke-width="0.5" />
  <path d="M7.562988 80.806427 C7.524115 80.715913 7.474689 80.630307 7.415736 80.551387" fill="none" stroke="black" stroke-width="0.5" />
  <path d="M7.158352 80.699988 L7.672259 80.403291" fill="none" stroke="black" stroke-width="0.5" />
  <path d="M7.305603 80.955031 L7.819494 80.658337" fill="none" stroke="black" stroke-width="0.5" />
  <path d="M5.2629 81.794331 C5.301772 81.884847 5.351198 81.970456 5.410151 82.049379" fill="none" stroke="black" stroke-width="0.5" />
  <path d="M5.667536 81.900779 L5.153665 82.197466" fill="none" stroke="black" stroke-width="0.5" />
  <path d="M5.0064 81.942421 L5.520285 81.645726" fill="none" stroke="black" stroke-width="0.5" />
  <path d="M7.672259 80.403291 C7.209909 79.754244 6.329993 79.562907 5.639868 79.96135 C4.949743 80.359793 4.675485 81.217491 5.0064 81.942421" fill="none" stroke="black" stroke-width="0.5" />
  <path d="M5.153665 82.197466 C5.616023 82.846483 6.495917 83.037798 7.186023 82.639362 C7.876128 82.240926 8.150385 81.383256 7.819494 80.658337" fill="none" stroke="black" stroke-width="0.5" />
  <path d="M7.37008 81.300381 C7.37008 81.828992 6.941555 82.257516 6.412944 82.257516 C5.884333 82.257516 5.455808 81.828992 5.455808 81.300381 C5.455808 80.77177 5.884333 80.343245 6.412944 80.343245 C6.941555 80.343245 7.37008 80.77177 7.37008 81.300381" fill="none" stroke="black" stroke-width="0.5" />
  <path d="M7.563471 40.3886 C7.524599 40.298087 7.475173 40.212481 7.416219 40.133561" fill="none" stroke="black" stroke-width="0.5" />
  <path d="M7.158835 40.282162 L7.678493 39.982139" fill="none" stroke="black" stroke-width="0.5" />
  <path d="M7.306087 40.537205 L7.819957 40.240522" fill="none" stroke="black" stroke-width="0.5" />
  <path d="M5.263383 41.376505 C5.302256 41.467021 5.351682 41.55263 5.410635 41.631553" fill="none" stroke="black" stroke-width="0.5" />
  <path d="M5.66802 41.482953 L5.154149 41.77964" fill="none" stroke="black" stroke-width="0.5" />
  <path d="M5.006898 41.524587 L5.520768 41.2279" fill="none" stroke="black" stroke-width="0.5" />
  <path d="M7.672743 39.985464 C7.210394 39.336419 6.33048 39.145082 5.640355 39.543522 C4.95023 39.941962 4.67597 40.799657 5.00688 41.524588" fill="none" stroke="black" stroke-width="0.5" />
  <path d="M5.154149 41.779641 C5.616508 42.428658 6.496403 42.619973 7.186509 42.221535 C7.876615 41.823096 8.15087 40.965424 7.819975 40.240505" fill="none" stroke="black" stroke-width="0.5" />
  <path d="M7.370563 40.882555 C7.370563 41.411166 6.942039 41.83969 6.413428 41.83969 C5.884816 41.83969 5.456292 41.411166 5.456292 40.882555 C5.456292 40.353943 5.884816 39.925419 6.413428 39.925419 C6.942039 39.925419 7.370563 40.353943 7.370563 40.882555" fill="none" stroke="black" stroke-width="0.5" />
  <path d="M7.561782 57.595942 C7.52291 57.505428 7.473483 57.419822 7.41453 57.340903" fill="none" stroke="black" stroke-width="0.5" />
  <path d="M7.157146 57.489503 L7.676804 57.189481" fill="none" stroke="black" stroke-width="0.5" />
  <path d="M7.304398 57.744546 L7.818268 57.447864" fill="none" stroke="black" stroke-width="0.5" />
  <path d="M5.261694 58.583846 C5.300566 58.674363 5.349993 58.759972 5.408946 58.838894" fill="none" stroke="black" stroke-width="0.5" />
  <path d="M5.666331 58.690294 L5.15246 58.986981" fill="none" stroke="black" stroke-width="0.5" />
  <path d="M5.005208 58.731929 L5.519079 58.435241" fill="none" stroke="black" stroke-width="0.5" />
  <path d="M7.671053 57.192806 C7.208704 56.54376 6.32879 56.352423 5.638666 56.750863 C4.948541 57.149304 4.674281 58.006998 5.005191 58.731929" fill="none" stroke="black" stroke-width="0.5" />
  <path d="M5.15246 58.986982 C5.614818 59.635999 6.494714 59.827314 7.18482 59.428876 C7.874926 59.030438 8.14918 58.172765 7.818286 57.447846" fill="none" stroke="black" stroke-width="0.5" />
  <path d="M7.368874 58.089896 C7.368874 58.618508 6.94035 59.047032 6.411738 59.047032 C5.883127 59.047032 5.454603 58.618508 5.454603 58.089896 C5.454603 57.561285 5.883127 57.132761 6.411738 57.132761 C6.94035 57.132761 7.368874 57.561285 7.368874 58.089896" fill="none" stroke="black" stroke-width="0.5" />
  <path d="M7.563078 24.086963 C7.524205 23.996449 7.474779 23.910843 7.415826 23.831923" fill="none" stroke="black" stroke-width="0.5" />
  <path d="M7.158442 23.980524 L7.6781 23.680502" fill="none" stroke="black" stroke-width="0.5" />
  <path d="M7.305693 24.235567 L7.819564 23.938885" fill="none" stroke="black" stroke-width="0.5" />
  <path d="M5.26299 25.074867 C5.301862 25.165383 5.351288 25.250992 5.410242 25.329915" fill="none" stroke="black" stroke-width="0.5" />
  <path d="M5.667626 25.181315 L5.153756 25.478002" fill="none" stroke="black" stroke-width="0.5" />
  <path d="M5.006504 25.222949 L5.520375 24.926262" fill="none" stroke="black" stroke-width="0.5" />
  <path d="M7.672349 23.683827 C7.21 23.034781 6.330086 22.843444 5.639962 23.241884 C4.949837 23.640324 4.675577 24.498019 5.006487 25.22295" fill="none" stroke="black" stroke-width="0.5" />
  <path d="M5.153755 25.478003 C5.616114 26.12702 6.49601 26.318335 7.186116 25.919897 C7.876222 25.521459 8.150476 24.663786 7.819582 23.938867" fill="none" stroke="black" stroke-width="0.5" />
  <path d="M7.37017 24.580917 C7.37017 25.109528 6.941645 25.538052 6.413034 25.538052 C5.884423 25.538052 5.455899 25.109528 5.455899 24.580917 C5.455899 24.052306 5.884423 23.623781 6.413034 23.623781 C6.941645 23.623781 7.37017 24.052306 7.37017 24.580917" fill="none" stroke="black" stroke-width="0.5" />
  <path d="M7.431573 0 L5.483214 0" fill="none" stroke="black" stroke-width="0.5" />
  <path d="M8.340561 89.546139 L13.463716 89.546139" fill="none" stroke="black" stroke-width="0.5" />
  <path d="M15.465225 89.546139 L16.064479 89.546139" fill="none" stroke="black" stroke-width="0.5" />
  <path d="M18.065988 89.546139 L24.463787 89.546139" fill="none" stroke="black" stroke-width="0.5" />
  <path d="M7.563469 17.743563 C7.524596 17.653049 7.47517 17.567443 7.416217 17.488524" fill="none" stroke="black" stroke-width="0.5" />
  <path d="M7.158833 17.637124 L7.678491 17.337102" fill="none" stroke="black" stroke-width="0.5" />
  <path d="M7.306085 17.892167 L7.819955 17.595485" fill="none" stroke="black" stroke-width="0.5" />
  <path d="M5.263381 18.731467 C5.302253 18.821984 5.351679 18.907593 5.410633 18.986515" fill="none" stroke="black" stroke-width="0.5" />
  <path d="M5.668017 18.837915 L5.154147 19.134602" fill="none" stroke="black" stroke-width="0.5" />
  <path d="M5.006895 18.87955 L5.520766 18.582862" fill="none" stroke="black" stroke-width="0.5" />
  <path d="M7.67274 17.340427 C7.210391 16.691381 6.330477 16.500044 5.640353 16.898484 C4.950228 17.296925 4.675968 18.154619 5.006878 18.87955" fill="none" stroke="black" stroke-width="0.5" />
  <path d="M5.154147 19.134603 C5.616505 19.78362 6.496401 19.974935 7.186507 19.576497 C7.876613 19.178059 8.150867 18.320386 7.819973 17.595467" fill="none" stroke="black" stroke-width="0.5" />
  <path d="M7.370561 18.237517 C7.370561 18.766129 6.942037 19.194653 6.413425 19.194653 C5.884814 19.194653 5.45629 18.766129 5.45629 18.237517 C5.45629 17.708906 5.884814 17.280382 6.413425 17.280382 C6.942037 17.280382 7.370561 17.708906 7.370561 18.237517" fill="none" stroke="black" stroke-width="0.5" />
  <path d="M71.37491 83.245636 L71.4816 83.486836 L71.838655 83.724763 L72.292582 83.874 L72.292582 83.874" fill="none" stroke="black" stroke-width="0.5" />
  <path d="M47.677091 83.245636 L47.792619 83.496327 L48.188619 83.745382 L48.941346 83.939782 L49.9896 83.978727 L50.978291 83.796763 L51.511419 83.496327 L51.626619 83.245636 L51.626619 83.245636" fill="none" stroke="black" stroke-width="0.5" />
  <path d="M55.576473 83.245636 L55.691673 83.496327 L56.088 83.745382 L56.8404 83.939782 L57.888655 83.978727 L58.877346 83.796763 L59.410473 83.496327 L59.526 83.245636 L59.526 83.245636" fill="none" stroke="black" stroke-width="0.5" />
  <path d="M59.526 83.245636 L59.641528 83.496327 L60.037528 83.745382 L60.789928 83.939782 L61.83851 83.978727 L62.826873 83.796763 L63.360328 83.496327 L63.475528 83.245636 L63.475528 83.245636" fill="none" stroke="black" stroke-width="0.5" />
  <path d="M63.475528 83.245636 L63.591055 83.496327 L63.987055 83.745382 L64.739782 83.939782 L65.788037 83.978727 L66.776728 83.796763 L67.309855 83.496327 L67.425382 83.245636 L67.425382 83.245636" fill="none" stroke="black" stroke-width="0.5" />
  <path d="M67.425382 83.245636 L67.540582 83.496327 L67.93691 83.745382 L68.68931 83.939782 L69.737564 83.978727 L70.726255 83.796763 L71.259382 83.496327 L71.37491 83.245636 L71.37491 83.245636" fill="none" stroke="black" stroke-width="0.5" />
  <path d="M40.54811 83.835054 L41.420619 83.979054 L42.49931 83.934218 L43.311273 83.702509 L43.684691 83.399782 L43.727564 83.245636 L43.727564 83.245636" fill="none" stroke="black" stroke-width="0.5" />
  <path d="M43.727564 83.245636 L43.842764 83.496327 L44.239091 83.745382 L44.991491 83.939782 L46.040073 83.978727 L47.028437 83.796763 L47.561564 83.496327 L47.677091 83.245636 L47.677091 83.245636" fill="none" stroke="black" stroke-width="0.5" />
  <path d="M51.626619 83.245636 L51.742146 83.496327 L52.138473 83.745382 L52.890873 83.939782 L53.939128 83.978727 L54.927819 83.796763 L55.460946 83.496327 L55.576473 83.245636 L55.576473 83.245636" fill="none" stroke="black" stroke-width="0.5" />
  <path d="M39.63011 83.207018 L39.7368 83.447891 L40.093855 83.685818 L40.54811 83.835054 L40.54811 83.835054" fill="none" stroke="black" stroke-width="0.5" />
  <path d="M23.831673 83.207018 L23.9472 83.457382 L24.3432 83.706436 L25.0956 83.900836 L26.144182 83.939782 L27.132546 83.757818 L27.665673 83.457382 L27.7812 83.207018 L27.7812 83.207018" fill="none" stroke="black" stroke-width="0.5" />
  <path d="M27.7812 83.207018 L27.896728 83.457382 L28.292728 83.706436 L29.045455 83.900836 L30.09371 83.939782 L31.0824 83.757818 L31.615528 83.457382 L31.730728 83.207018 L31.730728 83.207018" fill="none" stroke="black" stroke-width="0.5" />
  <path d="M31.730728 83.207018 L31.846255 83.457382 L32.242582 83.706436 L32.994982 83.900836 L34.043237 83.939782 L35.031928 83.757818 L35.565055 83.457382 L35.680582 83.207018 L35.680582 83.207018" fill="none" stroke="black" stroke-width="0.5" />
  <path d="M35.680582 83.207018 L35.79611 83.457382 L36.19211 83.706436 L36.94451 83.900836 L37.993091 83.939782 L38.981455 83.757818 L39.514582 83.457382 L39.63011 83.207018 L39.63011 83.207018" fill="none" stroke="black" stroke-width="0.5" />
  <path d="M23.201673 83.7516 L23.714182 83.459672 L23.831673 83.207018 L23.831673 83.207018" fill="none" stroke="black" stroke-width="0.5" />
  <path d="M48.968705 96.397171 C48.978975 95.953339 48.748795 95.538549 48.366745 95.312429 C47.984696 95.086309 47.510324 95.084102 47.126186 95.306657 C46.742049 95.529212 46.508018 95.941841 46.514158 96.385749" fill="none" stroke="black" stroke-width="0.5" />
  <path d="M72.292703 11.113447 L23.201794 11.113447 L23.201794 86.386174 L72.292703 86.386174 L72.292703 11.113447" fill="none" stroke="black" stroke-width="0.5" />
  <path d="M1.739446 19.721635 L1.739446 19.230442 L0.500454 19.230442 L0.500454 19.721635 L1.739446 19.721635" fill="none" stroke="black" stroke-width="0.5" />
  <path d="M1.739446 19.721635 L1.739446 19.230442 L0.500454 19.230442 L0.500454 19.721635 L1.739446 19.721635" fill="none" stroke="black" stroke-width="0.5" />
</svg>